# xmcd
#
# Track frame offsets:
#	150
#	13024
#	21774
#	38229
#	49123
#	60036
#	70722
#	78791
#	89044
#	102053
#	110086
#	122109
#	132842
#	157372
#	167608
#	178474
#	189899
#	201582
#	211668
#	220942
#
# Disc length: 3135 seconds
#
# Revision: 0
# Processed by: cddbd v1.5PL3 Copyright (c) Steve Scherf et al.
# Submitted via: dBpowerAMP V4.0
#
DISCID=180c3d14
DTITLE=WILSON ABOIADOR E JOSÉ CICERO - VAQUEJADA
DYEAR=2002
DGENRE=FORRÓ
TTITLE0=o valor que a mulher tem
TTITLE1=sorte de vaqueiro
TTITLE2=vaquejada na bahia
TTITLE3=o coração da mulher
TTITLE4=pedaço de chão
TTITLE5=surra de beijo
TTITLE6=amor em segredo
TTITLE7=vaqueiro velho
TTITLE8=flôr de ipê
TTITLE9=aonde eu vivo melhor
TTITLE10=fim de era
TTITLE11=o feiticeiro
TTITLE12=o boi cangaceiro
TTITLE13=coração de uma serpente
TTITLE14=meu despeito
TTITLE15=disgosto profundo
TTITLE16=vida de vaqueiro
TTITLE17=moça orgulhosa
TTITLE18=um bom vaqueiro
TTITLE19=como está meu coração
EXTD=
EXTT0=
EXTT1=
EXTT2=
EXTT3=
EXTT4=
EXTT5=
EXTT6=
EXTT7=
EXTT8=
EXTT9=
EXTT10=
EXTT11=
EXTT12=
EXTT13=
EXTT14=
EXTT15=
EXTT16=
EXTT17=
EXTT18=
EXTT19=
PLAYORDER=
